# xmcd
#
# Track frame offsets:
#	182
#	19617
#	40110
#	63592
#	78340
#	97277
#	120367
#	140605
#	160897
#	179997
#	195920
#	215570
#
# Disc length: 3127 seconds
# Revision: 0
# Processed by: cddbd v1.5.2PL0 Copyright (c) Steve Scherf et al.
# Submitted via: dBpowerAMP V12.0
#
DISCID=a80c350c
DTITLE=Festival - XXIV Califórnia Da Canção Nativa Do RS
DYEAR=1994
DGENRE=Brazil
TTITLE0=Milonga-me (Vinícius Brum)
TTITLE1=Se Eu Me Chamasse Lourenço (Ivo Fraga)
TTITLE2=Gaúcho (Jorge Guedes)
TTITLE3=Milonga Dos Vinte Anos (João De Almeida Neto)
TTITLE4=Galopes Da Noite (Maria Helena Anversa)
TTITLE5=Meus Pagos (Felipe Elizalde)
TTITLE6=Encruzilhadas (Luiz Carlos Borges e Vinícius Brum)
TTITLE7=Quando Falo De Açores (Kaco Xavier)
TTITLE8=Crescente Macharrona (Cesar Oliveira)
TTITLE9=Cocho De Sal (Osmar Ferreira)
TTITLE10=Descobrir (Vitor Hugo)
TTITLE11=Querência Do Mundo (Mário Barbará)
EXTD=
EXTT0=
EXTT1=
EXTT2=
EXTT3=
EXTT4=
EXTT5=
EXTT6=
EXTT7=
EXTT8=
EXTT9=
EXTT10=
EXTT11=
PLAYORDER=
